<svg width="16" height="16" viewBox="0 0 16 16" fill="none" xmlns="http://www.w3.org/2000/svg">
<g clip-path="url(#clip0_14_6)">
<path d="M4.71 12C4.65 12 4.61 11.9733 4.59 11.92L2.38 5.11L2.37 5.07C2.37 5.02333 2.4 5 2.46 5H2.81C2.87 5 2.91 5.02667 2.93 5.08L4.87 11.18C4.87667 11.1933 4.88667 11.2 4.9 11.2C4.91333 11.2 4.92333 11.1933 4.93 11.18L6.89 5.08C6.91 5.02667 6.95 5 7.01 5H7.34C7.41333 5 7.44 5.03667 7.42 5.11L5.2 11.92C5.18 11.9733 5.14 12 5.08 12H4.71ZM13.1145 5.37C13.1145 5.43667 13.0812 5.47 13.0145 5.47H9.23453C9.20786 5.47 9.19453 5.48333 9.19453 5.51V8.21C9.19453 8.23667 9.20786 8.25 9.23453 8.25H11.9145C11.9812 8.25 12.0145 8.28333 12.0145 8.35V8.62C12.0145 8.68667 11.9812 8.72 11.9145 8.72H9.23453C9.20786 8.72 9.19453 8.73333 9.19453 8.76V11.9C9.19453 11.9667 9.1612 12 9.09453 12H8.76453C8.69786 12 8.66453 11.9667 8.66453 11.9V5.1C8.66453 5.03333 8.69786 5 8.76453 5H13.0145C13.0812 5 13.1145 5.03333 13.1145 5.1V5.37Z" fill="black"/>
<path d="M7.71 8C7.65 8 7.61 7.97333 7.59 7.92L5.38 1.11L5.37 1.07C5.37 1.02333 5.4 1 5.46 1H5.81C5.87 1 5.91 1.02667 5.93 1.08L7.87 7.18C7.87667 7.19333 7.88667 7.2 7.9 7.2C7.91333 7.2 7.92333 7.19333 7.93 7.18L9.89 1.08C9.91 1.02667 9.95 1 10.01 1H10.34C10.4133 1 10.44 1.03667 10.42 1.11L8.2 7.92C8.18 7.97333 8.14 8 8.08 8H7.71ZM16.1145 1.37C16.1145 1.43667 16.0812 1.47 16.0145 1.47H12.2345C12.2079 1.47 12.1945 1.48333 12.1945 1.51V4.21C12.1945 4.23667 12.2079 4.25 12.2345 4.25H14.9145C14.9812 4.25 15.0145 4.28333 15.0145 4.35V4.62C15.0145 4.68667 14.9812 4.72 14.9145 4.72H12.2345C12.2079 4.72 12.1945 4.73333 12.1945 4.76V7.9C12.1945 7.96667 12.1612 8 12.0945 8H11.7645C11.6979 8 11.6645 7.96667 11.6645 7.9V1.1C11.6645 1.03333 11.6979 1 11.7645 1H16.0145C16.0812 1 16.1145 1.03333 16.1145 1.1V1.37Z" fill="black"/>
<path d="M1.71 17C1.65 17 1.61 16.9733 1.59 16.92L-0.62 10.11L-0.63 10.07C-0.63 10.0233 -0.6 10 -0.54 10H-0.19C-0.13 10 -0.09 10.0267 -0.07 10.08L1.87 16.18C1.87667 16.1933 1.88667 16.2 1.9 16.2C1.91333 16.2 1.92333 16.1933 1.93 16.18L3.89 10.08C3.91 10.0267 3.95 10 4.01 10H4.34C4.41333 10 4.44 10.0367 4.42 10.11L2.2 16.92C2.18 16.9733 2.14 17 2.08 17H1.71ZM10.1145 10.37C10.1145 10.4367 10.0812 10.47 10.0145 10.47H6.23453C6.20786 10.47 6.19453 10.4833 6.19453 10.51V13.21C6.19453 13.2367 6.20786 13.25 6.23453 13.25H8.91453C8.9812 13.25 9.01453 13.2833 9.01453 13.35V13.62C9.01453 13.6867 8.9812 13.72 8.91453 13.72H6.23453C6.20786 13.72 6.19453 13.7333 6.19453 13.76V16.9C6.19453 16.9667 6.1612 17 6.09453 17H5.76453C5.69786 17 5.66453 16.9667 5.66453 16.9V10.1C5.66453 10.0333 5.69786 10 5.76453 10H10.0145C10.0812 10 10.1145 10.0333 10.1145 10.1V10.37Z" fill="black"/>
</g>
<defs>
<clipPath id="clip0_14_6">
<rect width="16" height="16" fill="white"/>
</clipPath>
</defs>
</svg>
